<svg width="17" height="15" viewBox="0 0 17 15" fill="none" xmlns="http://www.w3.org/2000/svg">
<path d="M1.6296 14.0883C1.23073 14.1282 0.971458 14.1282 0.851796 14.0883C0.732133 14.0485 0.532696 13.9088 0.253483 13.6695C0.213596 13.3903 0.253483 13.131 0.373146 12.8917C0.492808 12.6524 0.652358 12.3931 0.851796 12.1139C1.33045 11.3162 1.86893 10.3788 2.46724 9.30184C3.10544 8.18499 3.52426 7.32741 3.7237 6.7291C3.7237 6.56955 3.74364 6.42994 3.78353 6.31028C3.10544 6.42994 2.40741 6.19062 1.68943 5.5923C0.931571 4.87433 0.672302 4.15635 0.911627 3.43838C1.19084 2.68052 1.84898 1.9426 2.88606 1.22462C3.60403 0.78586 4.12257 0.546535 4.44167 0.506648C4.80066 0.466759 5.33914 0.606365 6.05712 0.925465C6.7352 1.32434 7.19391 1.78305 7.43323 2.30158C7.71245 2.78024 7.75233 3.27883 7.5529 3.79737C7.43323 4.71478 7.21385 5.57236 6.89475 6.37011C6.61554 7.16786 6.35627 7.94567 6.11695 8.70353C5.87762 9.58105 5.47875 10.3987 4.92032 11.1566C4.3619 11.9145 3.74364 12.6923 3.06555 13.49C3.10544 13.6496 2.98578 13.7493 2.70656 13.7892C2.42735 13.8291 2.06836 13.9288 1.6296 14.0883ZM10.6043 14.0883C10.2054 14.1282 9.94615 14.1282 9.82649 14.0883C9.70682 14.0485 9.50738 13.9088 9.22817 13.6695C9.18828 13.3903 9.22817 13.131 9.34783 12.8917C9.4675 12.6524 9.62705 12.3931 9.82649 12.1139C10.3051 11.3162 10.8436 10.3788 11.4419 9.30184C12.0801 8.18499 12.4989 7.32741 12.6984 6.7291C12.6984 6.56955 12.7183 6.42994 12.7582 6.31028C12.0801 6.42994 11.3821 6.19062 10.6641 5.5923C9.90626 4.87433 9.64699 4.15635 9.88632 3.43838C10.1655 2.68052 10.8237 1.9426 11.8607 1.22462C12.5787 0.78586 13.0973 0.546535 13.4164 0.506648C13.7753 0.466759 14.3138 0.606365 15.0318 0.925465C15.7099 1.32434 16.1686 1.78305 16.4079 2.30158C16.6871 2.78024 16.727 3.27883 16.5276 3.79737C16.4079 4.71478 16.1885 5.57236 15.8694 6.37011C15.5902 7.16786 15.331 7.94567 15.0916 8.70353C14.8523 9.58105 14.4534 10.3987 13.895 11.1566C13.3366 11.9145 12.7183 12.6923 12.0402 13.49C12.0801 13.6496 11.9605 13.7493 11.6813 13.7892C11.402 13.8291 11.0431 13.9288 10.6043 14.0883Z" fill="#725B4B"/>
</svg>
