<svg width="30" height="30" viewBox="0 0 30 30" fill="none" xmlns="http://www.w3.org/2000/svg">
<path d="M13.5043 10.0392V12.0603H12.0248V14.5305H13.5043V21.8737H16.5455V14.5305H18.5856C18.5856 14.5305 18.7779 13.346 18.8704 12.05H16.5572V10.3621C16.5572 10.1082 16.8889 9.76913 17.2177 9.76913H18.8733V7.19617H16.6203C13.4294 7.19617 13.5043 9.66933 13.5043 10.0392Z" fill="white"/>
<path d="M6.6132 2.79292C5.83466 2.79292 5.088 3.1022 4.53748 3.65271C3.98697 4.20322 3.67769 4.94988 3.67769 5.72842V23.3414C3.67769 24.12 3.98697 24.8666 4.53748 25.4171C5.088 25.9676 5.83466 26.2769 6.6132 26.2769H24.2262C25.0048 26.2769 25.7514 25.9676 26.302 25.4171C26.8525 24.8666 27.1617 24.12 27.1617 23.3414V5.72842C27.1617 4.94988 26.8525 4.20322 26.302 3.65271C25.7514 3.1022 25.0048 2.79292 24.2262 2.79292H6.6132ZM6.6132 -0.142578H24.2262C25.7833 -0.142578 27.2766 0.475972 28.3777 1.577C29.4787 2.67802 30.0973 4.17134 30.0973 5.72842V23.3414C30.0973 24.8985 29.4787 26.3918 28.3777 27.4928C27.2766 28.5939 25.7833 29.2124 24.2262 29.2124H6.6132C5.05611 29.2124 3.5628 28.5939 2.46177 27.4928C1.36074 26.3918 0.742188 24.8985 0.742188 23.3414V5.72842C0.742188 4.17134 1.36074 2.67802 2.46177 1.577C3.5628 0.475972 5.05611 -0.142578 6.6132 -0.142578Z" fill="white"/>
</svg>
