<svg width="31" height="31" viewBox="0 0 31 31" fill="none" xmlns="http://www.w3.org/2000/svg">
<path fill-rule="evenodd" clip-rule="evenodd" d="M15.4894 8.70654C13.6948 8.70654 11.9737 9.41945 10.7047 10.6884C9.43569 11.9574 8.72278 13.6786 8.72278 15.4732C8.72278 17.2678 9.43569 18.9889 10.7047 20.2579C11.9737 21.5269 13.6948 22.2398 15.4894 22.2398C17.284 22.2398 19.0052 21.5269 20.2741 20.2579C21.5431 18.9889 22.256 17.2678 22.256 15.4732C22.256 13.6786 21.5431 11.9574 20.2741 10.6884C19.0052 9.41945 17.284 8.70654 15.4894 8.70654ZM11.4294 15.4732C11.4294 16.5499 11.8572 17.5826 12.6186 18.344C13.38 19.1054 14.4126 19.5332 15.4894 19.5332C16.5662 19.5332 17.5989 19.1054 18.3602 18.344C19.1216 17.5826 19.5494 16.5499 19.5494 15.4732C19.5494 14.3964 19.1216 13.3637 18.3602 12.6023C17.5989 11.8409 16.5662 11.4132 15.4894 11.4132C14.4126 11.4132 13.38 11.8409 12.6186 12.6023C11.8572 13.3637 11.4294 14.3964 11.4294 15.4732Z" fill="white"/>
<path d="M23.6093 5.99976C23.2504 5.99976 22.9062 6.14234 22.6524 6.39614C22.3986 6.64993 22.256 6.99416 22.256 7.35308C22.256 7.71201 22.3986 8.05623 22.6524 8.31003C22.9062 8.56383 23.2504 8.70641 23.6093 8.70641C23.9682 8.70641 24.3125 8.56383 24.5663 8.31003C24.8201 8.05623 24.9626 7.71201 24.9626 7.35308C24.9626 6.99416 24.8201 6.64993 24.5663 6.39614C24.3125 6.14234 23.9682 5.99976 23.6093 5.99976Z" fill="white"/>
<path fill-rule="evenodd" clip-rule="evenodd" d="M6.01609 0.586548C4.58039 0.586548 3.20349 1.15688 2.1883 2.17207C1.17311 3.18726 0.602783 4.56415 0.602783 5.99985V24.9464C0.602783 26.3821 1.17311 27.759 2.1883 28.7742C3.20349 29.7894 4.58039 30.3597 6.01609 30.3597H24.9627C26.3983 30.3597 27.7752 29.7894 28.7904 28.7742C29.8056 27.759 30.376 26.3821 30.376 24.9464V5.99985C30.376 4.56415 29.8056 3.18726 28.7904 2.17207C27.7752 1.15688 26.3983 0.586548 24.9627 0.586548H6.01609ZM24.9627 3.2932H6.01609C5.29824 3.2932 4.60979 3.57836 4.1022 4.08596C3.5946 4.59356 3.30944 5.282 3.30944 5.99985V24.9464C3.30944 25.6643 3.5946 26.3527 4.1022 26.8603C4.60979 27.3679 5.29824 27.6531 6.01609 27.6531H24.9627C25.6805 27.6531 26.3689 27.3679 26.8765 26.8603C27.3841 26.3527 27.6693 25.6643 27.6693 24.9464V5.99985C27.6693 5.282 27.3841 4.59356 26.8765 4.08596C26.3689 3.57836 25.6805 3.2932 24.9627 3.2932Z" fill="white"/>
</svg>
